# xmcd CD database file
#
# Track frame offsets:
#	150
#	30035
#	55622
#	70407
#	85117
#	100847
#	123275
#	137060
#	158097
#	182287
#	205590
#	223077
#	245875
#	264635
#
# Disc length: 3825 seconds
#
# Revision: 2
# Processed by: cddbd v1.5.1PL0 Copyright (c) Steve Scherf et al.
# Submitted via: CDex 1.51
#
DISCID=b80eef0e
DTITLE=Johnnie Bassett - I Gave My Life To The Blues
DYEAR=2004
DGENRE=Blues
TTITLE0=I'll Get Over You
TTITLE1=Mean Feeling
TTITLE2=Drink Muddy Water
TTITLE3=Blowing The Horn
TTITLE4=I Love A Good Woman (But I Like The Bad One's Too)
TTITLE5=If The Shoe Is On The Other Foot
TTITLE6=Too Hot To Trot
TTITLE7=They Call Me Lucky
TTITLE8=Weed Head Woman
TTITLE9=Same Ol' Blues
TTITLE10=Tired Of Waiting
TTITLE11=Mercedes Woman
TTITLE12=Double Dealing
TTITLE13=I Gave My Life To The Blues
EXTD=YEAR: 2004
EXTT0=
EXTT1=
EXTT2=
EXTT3=
EXTT4=
EXTT5=
EXTT6=
EXTT7=
EXTT8=
EXTT9=
EXTT10=
EXTT11=
EXTT12=
EXTT13=
PLAYORDER=
